<svg width="120" height="120" viewBox="0 0 120 120" xmlns="http://www.w3.org/2000/svg">
  <defs>
    <linearGradient id="cellGrad" x1="0%" y1="0%" x2="100%" y2="100%">
      <stop offset="0%" style="stop-color:#e5e7eb"/>
      <stop offset="100%" style="stop-color:#9ca3af"/>
    </linearGradient>
    <linearGradient id="bombGrad" x1="0%" y1="0%" x2="100%" y2="100%">
      <stop offset="0%" style="stop-color:#374151"/>
      <stop offset="100%" style="stop-color:#111827"/>
    </linearGradient>
  </defs>
  
  <!-- Background -->
  <rect width="120" height="120" fill="#f3f4f6" rx="8"/>
  
  <!-- Grid background -->
  <rect x="10" y="10" width="100" height="100" fill="#d1d5db" rx="4"/>
  
  <!-- Mine field cells -->
  <g stroke="#9ca3af" stroke-width="1">
    <!-- Row 1 -->
    <rect x="15" y="15" width="15" height="15" fill="url(#cellGrad)" rx="1"/>
    <rect x="30" y="15" width="15" height="15" fill="#fef3c7" rx="1"/>
    <rect x="45" y="15" width="15" height="15" fill="url(#cellGrad)" rx="1"/>
    <rect x="60" y="15" width="15" height="15" fill="#fef3c7" rx="1"/>
    <rect x="75" y="15" width="15" height="15" fill="url(#cellGrad)" rx="1"/>
    <rect x="90" y="15" width="15" height="15" fill="#fef3c7" rx="1"/>
    
    <!-- Row 2 -->
    <rect x="15" y="30" width="15" height="15" fill="#fef3c7" rx="1"/>
    <rect x="30" y="30" width="15" height="15" fill="#fee2e2" rx="1"/>
    <rect x="45" y="30" width="15" height="15" fill="#fef3c7" rx="1"/>
    <rect x="60" y="30" width="15" height="15" fill="url(#cellGrad)" rx="1"/>
    <rect x="75" y="30" width="15" height="15" fill="#fef3c7" rx="1"/>
    <rect x="90" y="30" width="15" height="15" fill="url(#cellGrad)" rx="1"/>
    
    <!-- Row 3 -->
    <rect x="15" y="45" width="15" height="15" fill="url(#cellGrad)" rx="1"/>
    <rect x="30" y="45" width="15" height="15" fill="#fef3c7" rx="1"/>
    <rect x="45" y="45" width="15" height="15" fill="url(#cellGrad)" rx="1"/>
    <rect x="60" y="45" width="15" height="15" fill="#fef3c7" rx="1"/>
    <rect x="75" y="45" width="15" height="15" fill="#fee2e2" rx="1"/>
    <rect x="90" y="45" width="15" height="15" fill="url(#cellGrad)" rx="1"/>
    
    <!-- Row 4 -->
    <rect x="15" y="60" width="15" height="15" fill="#fef3c7" rx="1"/>
    <rect x="30" y="60" width="15" height="15" fill="url(#cellGrad)" rx="1"/>
    <rect x="45" y="60" width="15" height="15" fill="#fef3c7" rx="1"/>
    <rect x="60" y="60" width="15" height="15" fill="url(#cellGrad)" rx="1"/>
    <rect x="75" y="60" width="15" height="15" fill="#fef3c7" rx="1"/>
    <rect x="90" y="60" width="15" height="15" fill="url(#cellGrad)" rx="1"/>
    
    <!-- Row 5 -->
    <rect x="15" y="75" width="15" height="15" fill="url(#cellGrad)" rx="1"/>
    <rect x="30" y="75" width="15" height="15" fill="#fef3c7" rx="1"/>
    <rect x="45" y="75" width="15" height="15" fill="#fee2e2" rx="1"/>
    <rect x="60" y="75" width="15" height="15" fill="#fef3c7" rx="1"/>
    <rect x="75" y="75" width="15" height="15" fill="url(#cellGrad)" rx="1"/>
    <rect x="90" y="75" width="15" height="15" fill="#fef3c7" rx="1"/>
    
    <!-- Row 6 -->
    <rect x="15" y="90" width="15" height="15" fill="#fef3c7" rx="1"/>
    <rect x="30" y="90" width="15" height="15" fill="url(#cellGrad)" rx="1"/>
    <rect x="45" y="90" width="15" height="15" fill="#fef3c7" rx="1"/>
    <rect x="60" y="90" width="15" height="15" fill="url(#cellGrad)" rx="1"/>
    <rect x="75" y="90" width="15" height="15" fill="#fef3c7" rx="1"/>
    <rect x="90" y="90" width="15" height="15" fill="url(#cellGrad)" rx="1"/>
  </g>
  
  <!-- Mine bombs -->
  <circle cx="37.5" cy="37.5" r="4" fill="url(#bombGrad)"/>
  <circle cx="82.5" cy="52.5" r="4" fill="url(#bombGrad)"/>
  <circle cx="52.5" cy="82.5" r="4" fill="url(#bombGrad)"/>
  
  <!-- Numbers -->
  <text x="22.5" y="26" text-anchor="middle" font-family="monospace" font-size="10" font-weight="bold" fill="#1e40af">1</text>
  <text x="52.5" y="26" text-anchor="middle" font-family="monospace" font-size="10" font-weight="bold" fill="#059669">2</text>
  <text x="37.5" y="56" text-anchor="middle" font-family="monospace" font-size="10" font-weight="bold" fill="#dc2626">3</text>
  <text x="67.5" y="71" text-anchor="middle" font-family="monospace" font-size="10" font-weight="bold" fill="#7c3aed">1</text>
  
  <!-- Flags -->
  <g>
    <rect x="68" y="17" width="1" height="8" fill="#6b7280"/>
    <polygon points="69,17 75,19 69,21" fill="#dc2626"/>
  </g>
  <g>
    <rect x="23" y="77" width="1" height="8" fill="#6b7280"/>
    <polygon points="24,77 30,79 24,81" fill="#dc2626"/>
  </g>
</svg>