<svg width="320" height="180" viewBox="0 0 320 180" xmlns="http://www.w3.org/2000/svg"><defs><linearGradient id="bgsp" x1="0" y1="0" x2="1" y2="1"><stop offset="0%" stop-color="#0b1220"/><stop offset="100%" stop-color="#0f172a"/></linearGradient></defs><rect width="320" height="180" fill="url(#bgsp)"/><g transform="translate(90,40)"><rect x="0" y="0" width="140" height="100" rx="8" fill="#1f2937"/><g transform="translate(10,10)" fill="#3b82f6"><rect x="0" y="0" width="30" height="30" rx="4"/><rect x="35" y="0" width="30" height="30" rx="4"/><rect x="70" y="0" width="30" height="30" rx="4"/><rect x="0" y="35" width="30" height="30" rx="4"/><rect x="35" y="35" width="30" height="30" rx="4"/><rect x="70" y="35" width="30" height="30" rx="4"/><rect x="0" y="70" width="30" height="30" rx="4"/><rect x="35" y="70" width="30" height="30" rx="4"/></g><rect x="115" y="80" width="30" height="30" rx="4" fill="#10b981"/></g><text x="16" y="164" font-family="Inter, Arial" font-size="18" fill="#e2e8f0">Sliding Puzzle</text></svg>