<svg width="320" height="180" viewBox="0 0 320 180" xmlns="http://www.w3.org/2000/svg"><defs><linearGradient id="bg" x1="0" y1="0" x2="1" y2="1"><stop offset="0%" stop-color="#0b1220"/><stop offset="100%" stop-color="#0f172a"/></linearGradient></defs><rect width="320" height="180" fill="url(#bg)"/><g fill="#22d3ee" transform="translate(60,40)"><rect x="0" y="0" width="20" height="16" rx="3"/><rect x="28" y="0" width="20" height="16" rx="3"/><rect x="56" y="0" width="20" height="16" rx="3"/><rect x="84" y="0" width="20" height="16" rx="3"/></g><g fill="#34d399" transform="translate(70,70)"><rect x="0" y="0" width="16" height="12" rx="2"/><rect x="24" y="0" width="16" height="12" rx="2"/><rect x="48" y="0" width="16" height="12" rx="2"/><rect x="72" y="0" width="16" height="12" rx="2"/></g><g transform="translate(150,130)"><rect x="0" y="0" width="36" height="8" rx="2" fill="#e2e8f0"/></g><circle cx="170" cy="110" r="3" fill="#fbbf24"/><text x="16" y="164" font-family="Inter, Arial" font-size="18" fill="#e2e8f0">Space Invaders</text></svg>