<svg width="200" height="200" viewBox="0 0 200 200" xmlns="http://www.w3.org/2000/svg">
  <rect width="200" height="200" rx="12" fill="#0e1526"/>
  
  <!-- Ground -->
  <rect x="0" y="140" width="200" height="60" fill="#1a2333"/>
  <line x1="0" y1="140" x2="200" y2="140" stroke="#3b4864" stroke-width="2"/>
  
  <!-- Clouds -->
  <ellipse cx="30" cy="40" rx="12" ry="6" fill="rgba(223,231,255,0.3)"/>
  <ellipse cx="160" cy="60" rx="8" ry="4" fill="rgba(223,231,255,0.3)"/>
  
  <!-- T-Rex (jumping) -->
  <g transform="translate(40,90)">
    <!-- Body -->
    <rect x="8" y="15" width="28" height="28" rx="4" fill="#dfe7ff"/>
    <!-- Head -->
    <rect x="28" y="8" width="18" height="18" rx="3" fill="#dfe7ff"/>
    <!-- Eye -->
    <rect x="38" y="14" width="4" height="4" fill="#0e1526"/>
    <!-- Legs (running position) -->
    <rect x="8" y="38" width="14" height="6" fill="#dfe7ff"/>
    <rect x="22" y="35" width="14" height="6" fill="#dfe7ff"/>
    <!-- Tail -->
    <rect x="0" y="20" width="12" height="8" fill="#dfe7ff"/>
  </g>
  
  <!-- Motion lines -->
  <g stroke="rgba(223,231,255,0.4)" stroke-width="2">
    <line x1="20" y1="100" x2="10" y2="105"/>
    <line x1="25" y1="110" x2="15" y2="115"/>
    <line x1="30" y1="120" x2="20" y2="125"/>
  </g>
  
  <!-- Cactus obstacle -->
  <g transform="translate(140,110)">
    <rect x="0" y="0" width="20" height="30" fill="#4ecdc4"/>
    <!-- Arms -->
    <rect x="-8" y="8" width="12" height="6" fill="#4ecdc4"/>
    <rect x="16" y="12" width="12" height="6" fill="#4ecdc4"/>
  </g>
  
  <!-- Score -->
  <text x="180" y="25" text-anchor="end" fill="#dfe7ff" font-family="monospace" font-size="12">HI 00000</text>
  <text x="180" y="40" text-anchor="end" fill="#dfe7ff" font-family="monospace" font-size="12">00000</text>
  
  <text x="100" y="185" text-anchor="middle" fill="#dfe7ff" font-family="Arial, sans-serif" font-size="14" font-weight="bold">T-REX RUNNER</text>
</svg>