<svg width="320" height="180" viewBox="0 0 320 180" xmlns="http://www.w3.org/2000/svg"><defs><linearGradient id="bg" x1="0" y1="0" x2="1" y2="1"><stop offset="0%" stop-color="#0f172a"/><stop offset="100%" stop-color="#111827"/></linearGradient></defs><rect width="320" height="180" fill="url(#bg)"/><g transform="translate(80,30)"><rect x="0" y="0" width="24" height="24" rx="4" fill="#38bdf8"/><rect x="26" y="0" width="24" height="24" rx="4" fill="#38bdf8"/><rect x="52" y="0" width="24" height="24" rx="4" fill="#38bdf8"/><rect x="78" y="0" width="24" height="24" rx="4" fill="#38bdf8"/></g><g transform="translate(150,74)"><rect x="0" y="0" width="24" height="24" rx="4" fill="#22c55e"/><rect x="26" y="0" width="24" height="24" rx="4" fill="#22c55e"/><rect x="0" y="26" width="24" height="24" rx="4" fill="#22c55e"/><rect x="26" y="26" width="24" height="24" rx="4" fill="#22c55e"/></g><g transform="translate(210,40)"><rect x="0" y="0" width="24" height="24" rx="4" fill="#f59e0b"/><rect x="26" y="0" width="24" height="24" rx="4" fill="#f59e0b"/><rect x="52" y="0" width="24" height="24" rx="4" fill="#f59e0b"/><rect x="26" y="26" width="24" height="24" rx="4" fill="#f59e0b"/></g><text x="16" y="164" font-family="Inter, Arial" font-size="18" fill="#e2e8f0">Tetris</text></svg>