<svg xmlns="http://www.w3.org/2000/svg" width="320" height="240" viewBox="0 0 320 240">
  <defs>
    <linearGradient id="bg" x1="0" y1="0" x2="0" y2="1">
      <stop offset="0%" stop-color="#0f1226"/>
      <stop offset="100%" stop-color="#1a1f3d"/>
    </linearGradient>
  </defs>
  <rect width="320" height="240" fill="url(#bg)"/>

  <!-- Title strip -->
  <rect x="0" y="0" width="320" height="36" fill="#262b57"/>
  <text x="12" y="24" font-family="system-ui, -apple-system, Segoe UI, Roboto, sans-serif" font-size="16" fill="#ffffff" font-weight="700">Video game monetization</text>

  <!-- Bars -->
  <rect x="20" y="60" width="280" height="12" rx="6" fill="#2a2f55"/>
  <rect x="20" y="60" width="210" height="12" rx="6" fill="#4caf50"/>
  <text x="20" y="55" font-family="system-ui, -apple-system, Segoe UI, Roboto, sans-serif" font-size="12" fill="#9fb5ff">Happiness</text>

  <rect x="20" y="90" width="280" height="12" rx="6" fill="#2a2f55"/>
  <rect x="20" y="90" width="120" height="12" rx="6" fill="#e53935"/>
  <text x="20" y="85" font-family="system-ui, -apple-system, Segoe UI, Roboto, sans-serif" font-size="12" fill="#ff9f9f">Ad Pressure</text>

  <!-- Player -->
  <circle cx="160" cy="190" r="16" fill="#ffd54f"/>
  <text x="160" y="190" text-anchor="middle" dominant-baseline="middle" font-family="system-ui, -apple-system, Segoe UI, Roboto, sans-serif" font-size="12" fill="#333">PM</text>

  <!-- Entities -->
  <g>
    <circle cx="70" cy="130" r="12" fill="#43a047"/>
    <text x="70" y="130" text-anchor="middle" dominant-baseline="middle" font-family="system-ui, -apple-system, Segoe UI, Roboto, sans-serif" font-size="12" fill="#fff">+$</text>
  </g>
  <g>
    <circle cx="260" cy="115" r="12" fill="#e53935"/>
    <text x="260" y="115" text-anchor="middle" dominant-baseline="middle" font-family="system-ui, -apple-system, Segoe UI, Roboto, sans-serif" font-size="12" fill="#fff">⚠</text>
  </g>
  <g>
    <circle cx="210" cy="150" r="12" fill="#1e88e5"/>
    <text x="210" y="150" text-anchor="middle" dominant-baseline="middle" font-family="system-ui, -apple-system, Segoe UI, Roboto, sans-serif" font-size="12" fill="#fff">💙</text>
  </g>

  <!-- Badge -->
  <rect x="240" y="12" rx="4" ry="4" width="68" height="20" fill="#ffb300"/>
  <text x="274" y="26" text-anchor="middle" font-family="system-ui, -apple-system, Segoe UI, Roboto, sans-serif" font-size="12" fill="#000">Strategy</text>
</svg>